#N canvas 638 59 960 998 10;
#X declare -lib mrpeach;
#X obj 521 927 *~;
#X obj 1317 279 / 127;
#X obj 1317 869 line~;
#X obj 1317 301 pack 0 50;
#X obj 107 132 tgl 30 0 empty empty PITCH 2 15 0 9 -260097 -1 -262144
0 1;
#X msg 518 71 load AkaiMPKmidiMapping;
#X msg 518 115 save AkaiMPKmidiMapping;
#X obj 518 46 loadbang;
#X obj 579 46 import mrpeach;
#X obj 178 132 tgl 30 0 empty empty WIDTH 3 15 0 9 -260097 -1 -262144
0 1;
#X obj 318 132 tgl 30 0 empty empty VOL. 6 15 0 9 -260097 -1 -262144
0 1;
#X obj -207 388 s pitch;
#X obj -56 388 s width;
#X obj 275 388 s volume;
#X obj 318 169 vsl 30 25 0 127 0 0 empty empty empty 0 -9 0 10 -262144
-1 -1 0 1;
#X obj 107 169 vsl 30 25 0 127 0 0 empty empty empty 0 -9 0 10 -262144
-1 -1 0 1;
#X obj 178 169 vsl 30 25 0 127 0 0 empty empty empty 0 -9 0 10 -262144
-1 -1 0 1;
#X obj 518 217 r pitch;
#X obj 1317 257 r volume;
#X text 516 22 Load/Save MIDI Learn Presets;
#X text -335 92 MIDI Learn \, toggle boxes to start learning;
#X obj 518 93 s preset;
#X obj 518 137 s preset;
#X obj 518 157 r preset;
#X obj 518 179 bb_learn;
#X text 1279 155 Basic Note In;
#N canvas 2456 290 450 300 OscToggle 0;
#X obj 584 -22 ctlin;
#X obj 604 116 route 10 11 12 13 14 15 16 17;
#X obj 471 163 moses 1;
#X obj 498 197 bng 15 250 50 0 empty empty empty 17 7 0 10 -262144
-1 -1;
#X obj 474 196 bng 15 250 50 0 empty empty empty 17 7 0 10 -262144
-1 -1;
#X msg 468 218 0;
#X msg 497 219 0.125;
#X obj 547 165 moses 1;
#X obj 574 199 bng 15 250 50 0 empty empty empty 17 7 0 10 -262144
-1 -1;
#X obj 544 200 bng 15 250 50 0 empty empty empty 17 7 0 10 -262144
-1 -1;
#X msg 544 220 0;
#X msg 573 221 0.125;
#X obj 622 166 moses 1;
#X obj 649 200 bng 15 250 50 0 empty empty empty 17 7 0 10 -262144
-1 -1;
#X obj 619 201 bng 15 250 50 0 empty empty empty 17 7 0 10 -262144
-1 -1;
#X msg 619 221 0;
#X msg 648 222 0.125;
#X obj 548 324 moses 1;
#X obj 575 358 bng 15 250 50 0 empty empty empty 17 7 0 10 -262144
-1 -1;
#X msg 532 382 0;
#X msg 574 380 0.125;
#X obj 624 326 moses 1;
#X obj 651 360 bng 15 250 50 0 empty empty empty 17 7 0 10 -262144
-1 -1;
#X obj 621 361 bng 15 250 50 0 empty empty empty 17 7 0 10 -262144
-1 -1;
#X msg 621 378 0;
#X msg 659 378 0.125;
#X obj 699 327 moses 1;
#X obj 726 361 bng 15 250 50 0 empty empty empty 17 7 0 10 -262144
-1 -1;
#X obj 696 362 bng 15 250 50 0 empty empty empty 17 7 0 10 -262144
-1 -1;
#X msg 696 382 0;
#X msg 725 383 0.125;
#X obj 705 167 moses 1;
#X obj 732 201 bng 15 250 50 0 empty empty empty 17 7 0 10 -262144
-1 -1;
#X obj 702 202 bng 15 250 50 0 empty empty empty 17 7 0 10 -262144
-1 -1;
#X msg 702 222 0;
#X msg 731 223 0.125;
#X obj 782 328 moses 1;
#X obj 809 362 bng 15 250 50 0 empty empty empty 17 7 0 10 -262144
-1 -1;
#X obj 779 363 bng 15 250 50 0 empty empty empty 17 7 0 10 -262144
-1 -1;
#X msg 772 384 0;
#X msg 808 384 0.125;
#X obj 535 359 bng 15 250 50 0 empty empty empty 17 7 0 10 -262144
-1 -1;
#X obj 539 106 tgl 15 0 empty empty empty 17 7 0 10 -262144 -1 -1 0
16;
#X connect 0 1 1 0;
#X connect 0 1 42 0;
#X connect 1 0 2 0;
#X connect 1 1 7 0;
#X connect 1 2 12 0;
#X connect 1 3 31 0;
#X connect 1 4 17 0;
#X connect 1 5 21 0;
#X connect 1 6 26 0;
#X connect 1 7 36 0;
#X connect 2 0 3 0;
#X connect 2 1 4 0;
#X connect 3 0 6 0;
#X connect 4 0 5 0;
#X connect 7 0 8 0;
#X connect 7 1 9 0;
#X connect 8 0 11 0;
#X connect 9 0 10 0;
#X connect 12 0 13 0;
#X connect 12 1 14 0;
#X connect 13 0 16 0;
#X connect 14 0 15 0;
#X connect 17 0 18 0;
#X connect 17 1 41 0;
#X connect 18 0 20 0;
#X connect 21 0 22 0;
#X connect 21 1 23 0;
#X connect 22 0 25 0;
#X connect 23 0 24 0;
#X connect 26 0 27 0;
#X connect 26 1 28 0;
#X connect 27 0 30 0;
#X connect 28 0 29 0;
#X connect 31 0 32 0;
#X connect 31 1 33 0;
#X connect 32 0 35 0;
#X connect 33 0 34 0;
#X connect 36 0 37 0;
#X connect 36 1 38 0;
#X connect 37 0 40 0;
#X connect 38 0 39 0;
#X connect 41 0 19 0;
#X restore 1344 50 pd OscToggle;
#X floatatom 518 276 10 0 0 0 - - -;
#X obj 611 393 hsl 128 32 0 16383 0 0 empty empty empty -2 -8 0 10
-262144 -1 -1 0 1;
#X obj 519 447 maxlib/scale 0 16383 24 84;
#X floatatom 519 469 10 0 0 0 MIDI - -;
#X obj 519 490 mtof;
#X floatatom 519 512 15 0 0 0 - - -;
#N canvas 1326 638 591 421 workerDrone 0;
#X obj 240 201 maxlib/scale 0 1 100 100;
#X obj 204 157 t b f;
#X floatatom 240 223 10 0 0 0 - - -;
#X obj 248 92 t b f;
#X obj 248 114 * 1;
#X floatatom 248 136 5 0 0 0 - - -;
#X obj 248 157 t b f;
#X obj 22 19 inlet base_freq;
#X obj 121 19 inlet span_factor;
#X obj 232 19 inlet span_multiplier;
#X obj 367 19 inlet oscillator_id;
#X obj 240 244 pack 0 100;
#X obj 240 266 line~;
#X obj 240 288 phasor~ 100;
#X obj 240 332 outlet~;
#X obj 249 311 -~ 0.5;
#X connect 0 0 2 0;
#X connect 1 0 0 0;
#X connect 1 1 0 3;
#X connect 2 0 11 0;
#X connect 3 0 4 0;
#X connect 3 1 4 1;
#X connect 4 0 5 0;
#X connect 5 0 6 0;
#X connect 6 0 0 0;
#X connect 6 1 0 4;
#X connect 7 0 1 0;
#X connect 7 0 4 0;
#X connect 8 0 0 0;
#X connect 9 0 3 0;
#X connect 11 0 12 0;
#X connect 12 0 13 0;
#X connect 13 0 15 0;
#X connect 15 0 14 0;
#X restore 519 729 pd workerDrone;
#N canvas 1804 373 591 432 workerDrone 0;
#X obj 240 201 maxlib/scale 0 1 100 100;
#X obj 204 157 t b f;
#X floatatom 240 223 10 0 0 0 - - -;
#X obj 248 92 t b f;
#X obj 248 114 * 1;
#X floatatom 248 136 5 0 0 0 - - -;
#X obj 248 157 t b f;
#X obj 22 19 inlet base_freq;
#X obj 121 19 inlet span_factor;
#X obj 232 19 inlet span_multiplier;
#X obj 367 19 inlet oscillator_id;
#X obj 240 244 pack 0 100;
#X obj 240 266 line~;
#X obj 240 288 phasor~ 100;
#X obj 240 332 outlet~;
#X obj 246 308 -~ 0.5;
#X connect 0 0 2 0;
#X connect 1 0 0 0;
#X connect 1 1 0 3;
#X connect 2 0 11 0;
#X connect 3 0 4 0;
#X connect 3 1 4 1;
#X connect 4 0 5 0;
#X connect 5 0 6 0;
#X connect 6 0 0 0;
#X connect 6 1 0 4;
#X connect 7 0 1 0;
#X connect 7 0 4 0;
#X connect 8 0 0 0;
#X connect 9 0 3 0;
#X connect 11 0 12 0;
#X connect 12 0 13 0;
#X connect 13 0 15 0;
#X connect 15 0 14 0;
#X restore 612 730 pd workerDrone;
#X floatatom 768 452 10 0 0 0 Span_Factor - -;
#X obj 768 430 maxlib/scale 0 16383 0.0005 0.9999;
#X obj 824 230 r width;
#X msg 846 499 1;
#X msg 873 499 2;
#X obj 953 476 bng 15 250 50 0 empty empty empty 17 7 0 10 -262144
-1 -1;
#N canvas 1488 639 591 421 workerDrone 0;
#X obj 240 201 maxlib/scale 0 1 100 100;
#X obj 204 157 t b f;
#X floatatom 240 223 10 0 0 0 - - -;
#X obj 248 92 t b f;
#X obj 248 114 * 1;
#X floatatom 248 136 5 0 0 0 - - -;
#X obj 248 157 t b f;
#X obj 22 19 inlet base_freq;
#X obj 121 19 inlet span_factor;
#X obj 232 19 inlet span_multiplier;
#X obj 367 19 inlet oscillator_id;
#X obj 240 244 pack 0 100;
#X obj 240 266 line~;
#X obj 240 288 phasor~ 100;
#X obj 240 332 outlet~;
#X obj 247 312 -~ 0.5;
#X connect 0 0 2 0;
#X connect 1 0 0 0;
#X connect 1 1 0 3;
#X connect 2 0 11 0;
#X connect 3 0 4 0;
#X connect 3 1 4 1;
#X connect 4 0 5 0;
#X connect 5 0 6 0;
#X connect 6 0 0 0;
#X connect 6 1 0 4;
#X connect 7 0 1 0;
#X connect 7 0 4 0;
#X connect 8 0 0 0;
#X connect 9 0 3 0;
#X connect 11 0 12 0;
#X connect 12 0 13 0;
#X connect 13 0 15 0;
#X connect 15 0 14 0;
#X restore 709 729 pd workerDrone;
#N canvas 1807 368 591 432 workerDrone 0;
#X obj 240 201 maxlib/scale 0 1 100 100;
#X obj 204 157 t b f;
#X floatatom 240 223 10 0 0 0 - - -;
#X obj 248 92 t b f;
#X obj 248 114 * 1;
#X floatatom 248 136 5 0 0 0 - - -;
#X obj 248 157 t b f;
#X obj 22 19 inlet base_freq;
#X obj 121 19 inlet span_factor;
#X obj 232 19 inlet span_multiplier;
#X obj 367 19 inlet oscillator_id;
#X obj 240 244 pack 0 100;
#X obj 240 266 line~;
#X obj 240 288 phasor~ 100;
#X obj 240 332 outlet~;
#X obj 249 313 -~ 0.5;
#X connect 0 0 2 0;
#X connect 1 0 0 0;
#X connect 1 1 0 3;
#X connect 2 0 11 0;
#X connect 3 0 4 0;
#X connect 3 1 4 1;
#X connect 4 0 5 0;
#X connect 5 0 6 0;
#X connect 6 0 0 0;
#X connect 6 1 0 4;
#X connect 7 0 1 0;
#X connect 7 0 4 0;
#X connect 8 0 0 0;
#X connect 9 0 3 0;
#X connect 11 0 12 0;
#X connect 12 0 13 0;
#X connect 13 0 15 0;
#X connect 15 0 14 0;
#X restore 802 729 pd workerDrone;
#X msg 900 499 3;
#X msg 927 499 4;
#X msg 954 499 5;
#X msg 981 499 6;
#X msg 1008 499 7;
#X msg 1035 499 8;
#X obj 953 454 loadbang;
#N canvas 1490 634 591 421 workerDrone 0;
#X obj 240 201 maxlib/scale 0 1 100 100;
#X obj 204 157 t b f;
#X floatatom 240 223 10 0 0 0 - - -;
#X obj 248 92 t b f;
#X obj 248 114 * 1;
#X floatatom 248 136 5 0 0 0 - - -;
#X obj 248 157 t b f;
#X obj 22 19 inlet base_freq;
#X obj 121 19 inlet span_factor;
#X obj 232 19 inlet span_multiplier;
#X obj 367 19 inlet oscillator_id;
#X obj 240 244 pack 0 100;
#X obj 240 266 line~;
#X obj 240 288 phasor~ 100;
#X obj 240 332 outlet~;
#X obj 248 310 -~ 0.5;
#X connect 0 0 2 0;
#X connect 1 0 0 0;
#X connect 1 1 0 3;
#X connect 2 0 11 0;
#X connect 3 0 4 0;
#X connect 3 1 4 1;
#X connect 4 0 5 0;
#X connect 5 0 6 0;
#X connect 6 0 0 0;
#X connect 6 1 0 4;
#X connect 7 0 1 0;
#X connect 7 0 4 0;
#X connect 8 0 0 0;
#X connect 9 0 3 0;
#X connect 11 0 12 0;
#X connect 12 0 13 0;
#X connect 13 0 15 0;
#X connect 15 0 14 0;
#X restore 895 729 pd workerDrone;
#N canvas 1810 363 591 432 workerDrone 0;
#X obj 240 201 maxlib/scale 0 1 100 100;
#X obj 204 157 t b f;
#X floatatom 240 223 10 0 0 0 - - -;
#X obj 248 92 t b f;
#X obj 248 114 * 1;
#X floatatom 248 136 5 0 0 0 - - -;
#X obj 248 157 t b f;
#X obj 22 19 inlet base_freq;
#X obj 121 19 inlet span_factor;
#X obj 232 19 inlet span_multiplier;
#X obj 367 19 inlet oscillator_id;
#X obj 240 244 pack 0 100;
#X obj 240 266 line~;
#X obj 240 288 phasor~ 100;
#X obj 240 332 outlet~;
#X obj 256 311 -~ 0.5;
#X connect 0 0 2 0;
#X connect 1 0 0 0;
#X connect 1 1 0 3;
#X connect 2 0 11 0;
#X connect 3 0 4 0;
#X connect 3 1 4 1;
#X connect 4 0 5 0;
#X connect 5 0 6 0;
#X connect 6 0 0 0;
#X connect 6 1 0 4;
#X connect 7 0 1 0;
#X connect 7 0 4 0;
#X connect 8 0 0 0;
#X connect 9 0 3 0;
#X connect 11 0 12 0;
#X connect 12 0 13 0;
#X connect 13 0 15 0;
#X connect 15 0 14 0;
#X restore 988 729 pd workerDrone;
#N canvas 1484 644 591 421 workerDrone 0;
#X obj 240 201 maxlib/scale 0 1 100 100;
#X obj 204 157 t b f;
#X floatatom 240 223 10 0 0 0 - - -;
#X obj 248 92 t b f;
#X obj 248 114 * 1;
#X floatatom 248 136 5 0 0 0 - - -;
#X obj 248 157 t b f;
#X obj 22 19 inlet base_freq;
#X obj 121 19 inlet span_factor;
#X obj 232 19 inlet span_multiplier;
#X obj 367 19 inlet oscillator_id;
#X obj 240 244 pack 0 100;
#X obj 240 266 line~;
#X obj 240 288 phasor~ 100;
#X obj 240 332 outlet~;
#X obj 254 309 -~ 0.5;
#X connect 0 0 2 0;
#X connect 1 0 0 0;
#X connect 1 1 0 3;
#X connect 2 0 11 0;
#X connect 3 0 4 0;
#X connect 3 1 4 1;
#X connect 4 0 5 0;
#X connect 5 0 6 0;
#X connect 6 0 0 0;
#X connect 6 1 0 4;
#X connect 7 0 1 0;
#X connect 7 0 4 0;
#X connect 8 0 0 0;
#X connect 9 0 3 0;
#X connect 11 0 12 0;
#X connect 12 0 13 0;
#X connect 13 0 15 0;
#X connect 15 0 14 0;
#X restore 1085 729 pd workerDrone;
#N canvas 1810 363 591 432 workerDrone 0;
#X obj 240 201 maxlib/scale 0 1 100 100;
#X obj 204 157 t b f;
#X floatatom 240 223 10 0 0 0 - - -;
#X obj 248 92 t b f;
#X obj 248 114 * 1;
#X floatatom 248 136 5 0 0 0 - - -;
#X obj 248 157 t b f;
#X obj 22 19 inlet base_freq;
#X obj 121 19 inlet span_factor;
#X obj 232 19 inlet span_multiplier;
#X obj 367 19 inlet oscillator_id;
#X obj 240 244 pack 0 100;
#X obj 240 266 line~;
#X obj 240 288 phasor~ 100;
#X obj 240 332 outlet~;
#X obj 248 309 -~ 0.5;
#X connect 0 0 2 0;
#X connect 1 0 0 0;
#X connect 1 1 0 3;
#X connect 2 0 11 0;
#X connect 3 0 4 0;
#X connect 3 1 4 1;
#X connect 4 0 5 0;
#X connect 5 0 6 0;
#X connect 6 0 0 0;
#X connect 6 1 0 4;
#X connect 7 0 1 0;
#X connect 7 0 4 0;
#X connect 8 0 0 0;
#X connect 9 0 3 0;
#X connect 11 0 12 0;
#X connect 12 0 13 0;
#X connect 13 0 15 0;
#X connect 15 0 14 0;
#X restore 1178 729 pd workerDrone;
#X obj 586 200 r finePitch;
#X obj 143 132 tgl 30 0 empty empty F.PITCH 1 15 0 6 -260097 -1 -262144
0 1;
#X obj 143 169 vsl 30 25 0 127 0 0 empty empty empty 0 -9 0 10 -262144
-1 -1 0 1;
#X obj 213 132 tgl 30 0 empty empty F.WIDTH 3 15 0 9 -260097 -1 -262144
0 1;
#X obj 213 169 vsl 30 25 0 127 0 0 empty empty empty 0 -9 0 10 -262144
-1 -1 0 1;
#X obj 14 386 s fineWidth;
#X obj -137 388 s finePitch;
#X obj 586 222 t b f;
#X obj 586 352 + 0;
#X floatatom 518 236 10 0 0 0 - - -;
#X obj 518 257 * 128;
#X floatatom 518 369 10 0 0 0 - - -;
#X obj 586 330 i;
#X floatatom 831 299 10 0 0 0 - - -;
#X obj 850 384 hsl 128 32 0 16383 0 0 empty empty empty -2 -8 0 10
-262144 -1 -1 0 1;
#X obj 899 245 t b f;
#X obj 899 337 + 0;
#X floatatom 831 259 10 0 0 0 - - -;
#X obj 831 280 * 128;
#X floatatom 831 354 10 0 0 0 - - -;
#X obj 899 315 i;
#X obj 913 222 r fineWidth;
#X obj 248 132 tgl 30 0 empty empty WIDTH 3 15 0 9 -260097 -1 -262144
0 1;
#X obj 248 169 vsl 30 25 0 127 0 0 empty empty empty 0 -9 0 10 -262144
-1 -1 0 1;
#X obj 283 132 tgl 30 0 empty empty F.WIDTH 3 15 0 9 -260097 -1 -262144
0 1;
#X obj 283 169 vsl 30 25 0 127 0 0 empty empty empty 0 -9 0 10 -262144
-1 -1 0 1;
#X obj 194 386 s filterQ;
#X obj 1030 238 r filterCutOff;
#X obj 94 389 s filterCutOff;
#X obj 1030 282 mtof;
#X floatatom 1032 306 10 0 0 0 - - -;
#X floatatom 1128 339 10 0 0 0 - - -;
#X obj 1112 288 r filterQ;
#X obj 531 871 rampsmooth~ 2 2;
#X obj 1032 327 pack 0 50;
#X obj 1032 349 line~;
#X obj 522 895 vcf~ 1;
#X obj 787 380 pack 0 50;
#X obj 787 402 line;
#X floatatom 979 306 5 0 0 0 - - -;
#X obj 1112 310 maxlib/scale 0 127 2.5 12.5 1;
#X obj 1030 259 maxlib/scale 0 127 48 123;
#X obj 522 836 *~ 0.125;
#X obj -200 125 bb_learn 1 ctl;
#X obj -247 152 bb_learn 2 ctl;
#X obj -234 180 bb_learn 3 ctl;
#X obj -243 202 bb_learn 4 ctl;
#X obj -234 226 bb_learn 5 ctl;
#X obj -229 253 bb_learn 6 ctl;
#X obj -232 281 bb_learn 8 ctl;
#X obj 522 967 outlet~;
#X obj 94 61 inlet;
#X obj 133 61 inlet;
#X obj 173 61 inlet;
#X obj 212 61 inlet;
#X obj 251 61 inlet;
#X obj 290 61 inlet;
#X obj 330 61 inlet;
#X connect 0 0 104 0;
#X connect 1 0 3 0;
#X connect 2 0 0 1;
#X connect 3 0 2 0;
#X connect 4 0 97 0;
#X connect 5 0 21 0;
#X connect 6 0 22 0;
#X connect 7 0 5 0;
#X connect 9 0 99 0;
#X connect 10 0 103 0;
#X connect 14 0 13 0;
#X connect 15 0 11 0;
#X connect 16 0 12 0;
#X connect 17 0 63 0;
#X connect 18 0 1 0;
#X connect 23 0 24 0;
#X connect 27 0 66 0;
#X connect 29 0 30 0;
#X connect 30 0 31 0;
#X connect 31 0 32 0;
#X connect 32 0 33 0;
#X connect 32 0 34 0;
#X connect 32 0 41 0;
#X connect 32 0 42 0;
#X connect 32 0 50 0;
#X connect 32 0 51 0;
#X connect 32 0 52 0;
#X connect 32 0 53 0;
#X connect 33 0 96 0;
#X connect 34 0 96 0;
#X connect 35 0 33 1;
#X connect 35 0 34 1;
#X connect 35 0 41 1;
#X connect 35 0 42 1;
#X connect 35 0 50 1;
#X connect 35 0 51 1;
#X connect 35 0 52 1;
#X connect 35 0 53 1;
#X connect 36 0 35 0;
#X connect 37 0 71 0;
#X connect 38 0 33 2;
#X connect 39 0 34 2;
#X connect 40 0 38 0;
#X connect 40 0 39 0;
#X connect 40 0 43 0;
#X connect 40 0 44 0;
#X connect 40 0 45 0;
#X connect 40 0 46 0;
#X connect 40 0 47 0;
#X connect 40 0 48 0;
#X connect 41 0 96 0;
#X connect 42 0 96 0;
#X connect 43 0 41 2;
#X connect 44 0 42 2;
#X connect 45 0 50 2;
#X connect 46 0 51 2;
#X connect 47 0 52 2;
#X connect 48 0 53 2;
#X connect 49 0 40 0;
#X connect 50 0 96 0;
#X connect 51 0 96 0;
#X connect 52 0 96 0;
#X connect 53 0 96 0;
#X connect 54 0 61 0;
#X connect 55 0 98 0;
#X connect 56 0 60 0;
#X connect 57 0 100 0;
#X connect 58 0 59 0;
#X connect 61 0 66 0;
#X connect 61 1 62 1;
#X connect 62 0 65 0;
#X connect 63 0 64 0;
#X connect 64 0 27 0;
#X connect 65 0 29 0;
#X connect 65 0 28 0;
#X connect 66 0 62 0;
#X connect 67 0 74 0;
#X connect 69 0 74 0;
#X connect 69 1 70 1;
#X connect 70 0 73 0;
#X connect 71 0 72 0;
#X connect 72 0 67 0;
#X connect 73 0 68 0;
#X connect 73 0 91 0;
#X connect 74 0 70 0;
#X connect 75 0 69 0;
#X connect 76 0 101 0;
#X connect 77 0 82 0;
#X connect 78 0 102 0;
#X connect 79 0 80 0;
#X connect 81 0 95 0;
#X connect 83 0 84 0;
#X connect 84 0 88 0;
#X connect 86 0 94 0;
#X connect 88 0 89 0;
#X connect 89 0 90 1;
#X connect 90 1 0 0;
#X connect 91 0 92 0;
#X connect 92 0 36 0;
#X connect 94 0 85 0;
#X connect 94 0 90 2;
#X connect 95 0 83 0;
#X connect 95 0 93 0;
#X connect 96 0 87 0;
#X connect 96 0 90 0;
#X connect 97 0 15 0;
#X connect 98 0 56 0;
#X connect 99 0 16 0;
#X connect 100 0 58 0;
#X connect 101 0 77 0;
#X connect 102 0 79 0;
#X connect 103 0 14 0;
#X connect 105 0 15 0;
#X connect 106 0 56 0;
#X connect 107 0 16 0;
#X connect 108 0 58 0;
#X connect 109 0 77 0;
#X connect 110 0 79 0;
#X connect 111 0 14 0;
#X coords 0 -1 1 1 256 128 1 100 100;
